<svg width="18" height="20" viewBox="0 0 18 20" fill="none" xmlns="http://www.w3.org/2000/svg">
<g id="elements">
<path id="Vector" d="M16.7642 5.95084L16.3529 5.237C16.0418 4.69714 15.8863 4.42721 15.6217 4.31958C15.357 4.21194 15.0577 4.29687 14.4591 4.46674L13.4422 4.75316C13.0601 4.84129 12.6591 4.79129 12.3101 4.612L12.0294 4.45002C11.7302 4.25837 11.5 3.97579 11.3726 3.64363L11.0943 2.81247C10.9113 2.26246 10.8198 1.98745 10.602 1.83015C10.3842 1.67285 10.0949 1.67285 9.51627 1.67285H8.58729C8.00866 1.67285 7.71934 1.67285 7.50153 1.83015C7.28372 1.98745 7.19223 2.26246 7.00925 2.81247L6.73095 3.64363C6.60355 3.97579 6.37338 4.25837 6.07415 4.45002L5.79341 4.612C5.44446 4.79129 5.0435 4.84129 4.66133 4.75316L3.64446 4.46674C3.04585 4.29687 2.74655 4.21194 2.4819 4.31958C2.21725 4.42721 2.06171 4.69714 1.75064 5.237L1.33931 5.95084C1.04772 6.45688 0.901927 6.7099 0.930222 6.97925C0.958519 7.2486 1.1537 7.46566 1.54406 7.89977L2.40326 8.86036C2.61326 9.12621 2.76235 9.58952 2.76235 10.006C2.76235 10.4229 2.61331 10.886 2.40328 11.1519L1.54406 12.1125C1.1537 12.5466 0.958521 12.7637 0.930224 13.0331C0.901927 13.3024 1.04773 13.5554 1.33931 14.0615L1.75062 14.7753C2.0617 15.3151 2.21725 15.5851 2.4819 15.6927C2.74655 15.8004 3.04586 15.7154 3.64448 15.5455L4.66129 15.2591C5.04353 15.171 5.44456 15.221 5.79356 15.4003L6.07426 15.5623C6.37343 15.754 6.60354 16.0365 6.73092 16.3687L7.00925 17.1999C7.19223 17.7499 7.28372 18.0249 7.50153 18.1822C7.71934 18.3395 8.00866 18.3395 8.58729 18.3395H9.51627C10.0949 18.3395 10.3842 18.3395 10.602 18.1822C10.8198 18.0249 10.9113 17.7499 11.0943 17.1999L11.3726 16.3687C11.5 16.0365 11.7301 15.754 12.0293 15.5623L12.31 15.4003C12.659 15.221 13.06 15.171 13.4423 15.2591L14.4591 15.5455C15.0577 15.7154 15.357 15.8004 15.6217 15.6927C15.8863 15.5851 16.0419 15.3151 16.3529 14.7753L16.3529 14.7753L16.7642 14.0615C17.0558 13.5554 17.2016 13.3024 17.1733 13.0331C17.145 12.7637 16.9499 12.5466 16.5595 12.1125L15.7003 11.1519C15.4903 10.886 15.3412 10.4229 15.3412 10.006C15.3412 9.58952 15.4903 9.12621 15.7003 8.86036L16.5595 7.89977C16.9499 7.46566 17.145 7.2486 17.1733 6.97925C17.2016 6.7099 17.0558 6.45688 16.7642 5.95084Z" stroke="#141B34" stroke-width="1.5" stroke-linecap="round"/>
<path id="Ellipse 1200" d="M11.9329 9.99967C11.9329 11.6105 10.6271 12.9163 9.01628 12.9163C7.40545 12.9163 6.09961 11.6105 6.09961 9.99967C6.09961 8.38884 7.40545 7.08301 9.01628 7.08301C10.6271 7.08301 11.9329 8.38884 11.9329 9.99967Z" stroke="#141B34" stroke-width="1.5"/>
</g>
</svg>
