<svg width="20" height="17" viewBox="0 0 20 17" fill="none" xmlns="http://www.w3.org/2000/svg">
<g id="elements">
<path id="Vector" d="M15.5137 14.6665H15.9222C16.8804 14.6665 17.6426 14.2299 18.3269 13.6195C20.0654 12.0687 15.9788 10.4998 14.5837 10.4998M12.917 2.22381C13.1062 2.18628 13.3027 2.1665 13.5043 2.1665C15.0209 2.1665 16.2503 3.28579 16.2503 4.6665C16.2503 6.04722 15.0209 7.1665 13.5043 7.1665C13.3027 7.1665 13.1062 7.14673 12.917 7.1092" stroke="#141B34" stroke-width="1.5" stroke-linecap="round"/>
<g id="Vector_2">
<path d="M3.73443 11.4258C2.75195 11.9523 0.175948 13.0274 1.7449 14.3727C2.51133 15.0298 3.36492 15.4998 4.4381 15.4998H10.5619C11.6351 15.4998 12.4887 15.0298 13.2551 14.3727C14.8241 13.0274 12.2481 11.9523 11.2656 11.4258C8.96167 10.1912 6.03832 10.1912 3.73443 11.4258Z" stroke="#141B34" stroke-width="1.5"/>
<path d="M10.8333 4.24984C10.8333 6.09079 9.34095 7.58317 7.5 7.58317C5.65905 7.58317 4.16667 6.09079 4.16667 4.24984C4.16667 2.40889 5.65905 0.916504 7.5 0.916504C9.34095 0.916504 10.8333 2.40889 10.8333 4.24984Z" stroke="#141B34" stroke-width="1.5"/>
</g>
</g>
</svg>
