<svg width="50" height="50" viewBox="0 0 50 50" fill="none" xmlns="http://www.w3.org/2000/svg">
<circle cx="25" cy="25" r="25" fill="#F1F1F1"/>
<circle cx="43" cy="41" r="5" fill="#D9DBDB"/>
<path d="M17.3118 30H15.343L18.9276 19.8182H21.2045L24.794 30H22.8253L20.1058 21.9062H20.0263L17.3118 30ZM17.3764 26.0078H22.7457V27.4893H17.3764V26.0078ZM29.5854 30H26.1351V19.8182H29.655C30.6659 19.8182 31.5343 20.022 32.2601 20.4297C32.9893 20.834 33.5494 21.4157 33.9405 22.1747C34.3316 22.9337 34.5272 23.8419 34.5272 24.8991C34.5272 25.9598 34.33 26.8712 33.9355 27.6335C33.5444 28.3958 32.9793 28.9808 32.2402 29.3885C31.5044 29.7962 30.6195 30 29.5854 30ZM27.9796 28.4041H29.4959C30.2052 28.4041 30.7968 28.2749 31.2708 28.0163C31.7447 27.7545 32.101 27.3651 32.3397 26.848C32.5783 26.3277 32.6976 25.678 32.6976 24.8991C32.6976 24.1203 32.5783 23.474 32.3397 22.9602C32.101 22.4432 31.748 22.0571 31.2807 21.8018C30.8167 21.5433 30.24 21.4141 29.5506 21.4141H27.9796V28.4041Z" fill="#686D82"/>
</svg>
